<svg width="36" height="35" viewBox="0 0 36 35" fill="none" xmlns="http://www.w3.org/2000/svg">
<path d="M0 26.6602C0 28.7793 0.772461 30.6113 2.31738 32.1562C3.87598 33.7148 5.71484 34.4941 7.83398 34.4941H22.8252C24.9443 34.4941 26.7559 33.7285 28.2598 32.1973C29.7773 30.666 30.5361 28.8203 30.5361 26.6602C30.5361 25.6074 30.3857 24.7119 30.085 23.9736C31.9033 22.8115 33.3389 21.2666 34.3916 19.3389C35.458 17.3975 35.9912 15.3262 35.9912 13.125C35.9912 11.3477 35.6426 9.65234 34.9453 8.03906C34.2617 6.41211 33.332 5.01758 32.1562 3.85547C30.9805 2.67969 29.5859 1.74316 27.9727 1.0459C26.3594 0.348633 24.6709 0 22.9072 0C20.5146 0 18.3066 0.587891 16.2832 1.76367C14.2734 2.93945 12.6875 4.53223 11.5254 6.54199C10.377 8.55176 9.80273 10.7461 9.80273 13.125V13.8633C7.60156 15.1211 6.15234 16.9395 5.45508 19.3184C3.80078 19.8379 2.47461 20.7607 1.47656 22.0869C0.492188 23.4131 0 24.9375 0 26.6602ZM4.32715 26.6602C4.32715 25.7441 4.62109 24.958 5.20898 24.3018C5.79688 23.6455 6.54199 23.2764 7.44434 23.1943L8.81836 23.0098C9.0918 23.0098 9.22852 22.8457 9.22852 22.5176L9.4541 21.2871C9.60449 20.0293 10.1309 18.9766 11.0332 18.1289C11.9492 17.2812 13.0293 16.8574 14.2734 16.8574C15.5449 16.8574 16.6455 17.2812 17.5752 18.1289C18.5186 18.9766 19.0654 20.0293 19.2158 21.2871L19.4004 22.7021C19.5371 23.0303 19.7217 23.1943 19.9541 23.1943H22.8252C23.7686 23.1943 24.582 23.5361 25.2656 24.2197C25.9629 24.9033 26.3115 25.7168 26.3115 26.6602C26.3115 27.6445 25.9629 28.4854 25.2656 29.1826C24.582 29.8799 23.7686 30.2285 22.8252 30.2285H7.83398C6.84961 30.2285 6.01562 29.8799 5.33203 29.1826C4.66211 28.4854 4.32715 27.6445 4.32715 26.6602ZM14.0068 12.6738C14.1572 10.2812 15.0801 8.27148 16.7754 6.64453C18.4844 5.01758 20.5283 4.2041 22.9072 4.2041C25.3408 4.2041 27.4053 5.07227 29.1006 6.80859C30.8096 8.54492 31.6641 10.6504 31.6641 13.125C31.6641 14.6562 31.2949 16.0781 30.5566 17.3906C29.8184 18.6895 28.8135 19.7422 27.542 20.5488C26.2568 19.4824 24.7734 18.9492 23.0918 18.9492C22.4492 17.0352 21.3213 15.5107 19.708 14.376C18.1084 13.2412 16.2969 12.6738 14.2734 12.6738H14.0068Z" fill="white" fill-opacity="0.7"/>
</svg>
